<mxfile host="Electron" modified="2023-11-02T23:31:35.754Z" agent="Mozilla/5.0 (Windows NT 10.0; Win64; x64) AppleWebKit/537.36 (KHTML, like Gecko) draw.io/21.2.1 Chrome/112.0.5615.87 Electron/24.1.2 Safari/537.36" etag="YkhVPqNrWGPv_aFsTkqK" version="21.2.1" type="device">
  <diagram name="PÃ¡gina-1" id="0LWkbvT74W_gWExH9Klk">
    <mxGraphModel dx="2484" dy="1995" grid="1" gridSize="10" guides="1" tooltips="1" connect="1" arrows="1" fold="1" page="1" pageScale="1" pageWidth="827" pageHeight="1169" math="0" shadow="0">
      <root>
        <mxCell id="0" />
        <mxCell id="1" parent="0" />
        <mxCell id="72mwAMU63NSjmhYBSmtf-1" value="TerminalGestionada" style="swimlane;fontStyle=1;align=center;verticalAlign=top;childLayout=stackLayout;horizontal=1;startSize=26;horizontalStack=0;resizeParent=1;resizeParentMax=0;resizeLast=0;collapsible=1;marginBottom=0;whiteSpace=wrap;html=1;" parent="1" vertex="1">
          <mxGeometry x="230" y="-480" width="160" height="86" as="geometry" />
        </mxCell>
        <mxCell id="72mwAMU63NSjmhYBSmtf-2" value="+ field: type" style="text;strokeColor=none;fillColor=none;align=left;verticalAlign=top;spacingLeft=4;spacingRight=4;overflow=hidden;rotatable=0;points=[[0,0.5],[1,0.5]];portConstraint=eastwest;whiteSpace=wrap;html=1;" parent="72mwAMU63NSjmhYBSmtf-1" vertex="1">
          <mxGeometry y="26" width="160" height="26" as="geometry" />
        </mxCell>
        <mxCell id="72mwAMU63NSjmhYBSmtf-3" value="" style="line;strokeWidth=1;fillColor=none;align=left;verticalAlign=middle;spacingTop=-1;spacingLeft=3;spacingRight=3;rotatable=0;labelPosition=right;points=[];portConstraint=eastwest;strokeColor=inherit;" parent="72mwAMU63NSjmhYBSmtf-1" vertex="1">
          <mxGeometry y="52" width="160" height="8" as="geometry" />
        </mxCell>
        <mxCell id="72mwAMU63NSjmhYBSmtf-4" value="+ method(type): type" style="text;strokeColor=none;fillColor=none;align=left;verticalAlign=top;spacingLeft=4;spacingRight=4;overflow=hidden;rotatable=0;points=[[0,0.5],[1,0.5]];portConstraint=eastwest;whiteSpace=wrap;html=1;" parent="72mwAMU63NSjmhYBSmtf-1" vertex="1">
          <mxGeometry y="60" width="160" height="26" as="geometry" />
        </mxCell>
        <mxCell id="72mwAMU63NSjmhYBSmtf-9" value="LineasNaviera" style="swimlane;fontStyle=1;align=center;verticalAlign=top;childLayout=stackLayout;horizontal=1;startSize=26;horizontalStack=0;resizeParent=1;resizeParentMax=0;resizeLast=0;collapsible=1;marginBottom=0;whiteSpace=wrap;html=1;" parent="1" vertex="1">
          <mxGeometry x="-240" y="-320" width="160" height="86" as="geometry" />
        </mxCell>
        <mxCell id="72mwAMU63NSjmhYBSmtf-10" value="+ field: type" style="text;strokeColor=none;fillColor=none;align=left;verticalAlign=top;spacingLeft=4;spacingRight=4;overflow=hidden;rotatable=0;points=[[0,0.5],[1,0.5]];portConstraint=eastwest;whiteSpace=wrap;html=1;" parent="72mwAMU63NSjmhYBSmtf-9" vertex="1">
          <mxGeometry y="26" width="160" height="26" as="geometry" />
        </mxCell>
        <mxCell id="72mwAMU63NSjmhYBSmtf-11" value="" style="line;strokeWidth=1;fillColor=none;align=left;verticalAlign=middle;spacingTop=-1;spacingLeft=3;spacingRight=3;rotatable=0;labelPosition=right;points=[];portConstraint=eastwest;strokeColor=inherit;" parent="72mwAMU63NSjmhYBSmtf-9" vertex="1">
          <mxGeometry y="52" width="160" height="8" as="geometry" />
        </mxCell>
        <mxCell id="72mwAMU63NSjmhYBSmtf-12" value="+ method(type): type" style="text;strokeColor=none;fillColor=none;align=left;verticalAlign=top;spacingLeft=4;spacingRight=4;overflow=hidden;rotatable=0;points=[[0,0.5],[1,0.5]];portConstraint=eastwest;whiteSpace=wrap;html=1;" parent="72mwAMU63NSjmhYBSmtf-9" vertex="1">
          <mxGeometry y="60" width="160" height="26" as="geometry" />
        </mxCell>
        <mxCell id="72mwAMU63NSjmhYBSmtf-13" value="Buque" style="swimlane;fontStyle=1;align=center;verticalAlign=top;childLayout=stackLayout;horizontal=1;startSize=26;horizontalStack=0;resizeParent=1;resizeParentMax=0;resizeLast=0;collapsible=1;marginBottom=0;whiteSpace=wrap;html=1;" parent="1" vertex="1">
          <mxGeometry x="-500" y="-160" width="160" height="86" as="geometry" />
        </mxCell>
        <mxCell id="72mwAMU63NSjmhYBSmtf-14" value="+ field: type" style="text;strokeColor=none;fillColor=none;align=left;verticalAlign=top;spacingLeft=4;spacingRight=4;overflow=hidden;rotatable=0;points=[[0,0.5],[1,0.5]];portConstraint=eastwest;whiteSpace=wrap;html=1;" parent="72mwAMU63NSjmhYBSmtf-13" vertex="1">
          <mxGeometry y="26" width="160" height="26" as="geometry" />
        </mxCell>
        <mxCell id="72mwAMU63NSjmhYBSmtf-15" value="" style="line;strokeWidth=1;fillColor=none;align=left;verticalAlign=middle;spacingTop=-1;spacingLeft=3;spacingRight=3;rotatable=0;labelPosition=right;points=[];portConstraint=eastwest;strokeColor=inherit;" parent="72mwAMU63NSjmhYBSmtf-13" vertex="1">
          <mxGeometry y="52" width="160" height="8" as="geometry" />
        </mxCell>
        <mxCell id="72mwAMU63NSjmhYBSmtf-16" value="+ method(type): type" style="text;strokeColor=none;fillColor=none;align=left;verticalAlign=top;spacingLeft=4;spacingRight=4;overflow=hidden;rotatable=0;points=[[0,0.5],[1,0.5]];portConstraint=eastwest;whiteSpace=wrap;html=1;" parent="72mwAMU63NSjmhYBSmtf-13" vertex="1">
          <mxGeometry y="60" width="160" height="26" as="geometry" />
        </mxCell>
        <mxCell id="72mwAMU63NSjmhYBSmtf-21" value="ContainerDry" style="swimlane;fontStyle=1;align=center;verticalAlign=top;childLayout=stackLayout;horizontal=1;startSize=26;horizontalStack=0;resizeParent=1;resizeParentMax=0;resizeLast=0;collapsible=1;marginBottom=0;whiteSpace=wrap;html=1;" parent="1" vertex="1">
          <mxGeometry x="780" y="156" width="210" height="60" as="geometry" />
        </mxCell>
        <mxCell id="72mwAMU63NSjmhYBSmtf-23" value="" style="line;strokeWidth=1;fillColor=none;align=left;verticalAlign=middle;spacingTop=-1;spacingLeft=3;spacingRight=3;rotatable=0;labelPosition=right;points=[];portConstraint=eastwest;strokeColor=inherit;" parent="72mwAMU63NSjmhYBSmtf-21" vertex="1">
          <mxGeometry y="26" width="210" height="8" as="geometry" />
        </mxCell>
        <mxCell id="72mwAMU63NSjmhYBSmtf-24" value="new(double,double,double,Stirng,int)" style="text;strokeColor=none;fillColor=none;align=left;verticalAlign=top;spacingLeft=4;spacingRight=4;overflow=hidden;rotatable=0;points=[[0,0.5],[1,0.5]];portConstraint=eastwest;whiteSpace=wrap;html=1;" parent="72mwAMU63NSjmhYBSmtf-21" vertex="1">
          <mxGeometry y="34" width="210" height="26" as="geometry" />
        </mxCell>
        <mxCell id="72mwAMU63NSjmhYBSmtf-26" value="ContainerTanque" style="swimlane;fontStyle=1;align=center;verticalAlign=top;childLayout=stackLayout;horizontal=1;startSize=26;horizontalStack=0;resizeParent=1;resizeParentMax=0;resizeLast=0;collapsible=1;marginBottom=0;whiteSpace=wrap;html=1;" parent="1" vertex="1">
          <mxGeometry x="1000" y="156" width="210" height="60" as="geometry" />
        </mxCell>
        <mxCell id="72mwAMU63NSjmhYBSmtf-28" value="" style="line;strokeWidth=1;fillColor=none;align=left;verticalAlign=middle;spacingTop=-1;spacingLeft=3;spacingRight=3;rotatable=0;labelPosition=right;points=[];portConstraint=eastwest;strokeColor=inherit;" parent="72mwAMU63NSjmhYBSmtf-26" vertex="1">
          <mxGeometry y="26" width="210" height="8" as="geometry" />
        </mxCell>
        <mxCell id="72mwAMU63NSjmhYBSmtf-29" value="new(double,double,double,Stirng,int)" style="text;strokeColor=none;fillColor=none;align=left;verticalAlign=top;spacingLeft=4;spacingRight=4;overflow=hidden;rotatable=0;points=[[0,0.5],[1,0.5]];portConstraint=eastwest;whiteSpace=wrap;html=1;" parent="72mwAMU63NSjmhYBSmtf-26" vertex="1">
          <mxGeometry y="34" width="210" height="26" as="geometry" />
        </mxCell>
        <mxCell id="72mwAMU63NSjmhYBSmtf-30" value="ContainerReefer" style="swimlane;fontStyle=1;align=center;verticalAlign=top;childLayout=stackLayout;horizontal=1;startSize=26;horizontalStack=0;resizeParent=1;resizeParentMax=0;resizeLast=0;collapsible=1;marginBottom=0;whiteSpace=wrap;html=1;" parent="1" vertex="1">
          <mxGeometry x="550" y="156" width="210" height="86" as="geometry" />
        </mxCell>
        <mxCell id="72mwAMU63NSjmhYBSmtf-31" value=" consumo: double" style="text;strokeColor=none;fillColor=none;align=left;verticalAlign=top;spacingLeft=4;spacingRight=4;overflow=hidden;rotatable=0;points=[[0,0.5],[1,0.5]];portConstraint=eastwest;whiteSpace=wrap;html=1;" parent="72mwAMU63NSjmhYBSmtf-30" vertex="1">
          <mxGeometry y="26" width="210" height="26" as="geometry" />
        </mxCell>
        <mxCell id="72mwAMU63NSjmhYBSmtf-32" value="" style="line;strokeWidth=1;fillColor=none;align=left;verticalAlign=middle;spacingTop=-1;spacingLeft=3;spacingRight=3;rotatable=0;labelPosition=right;points=[];portConstraint=eastwest;strokeColor=inherit;" parent="72mwAMU63NSjmhYBSmtf-30" vertex="1">
          <mxGeometry y="52" width="210" height="8" as="geometry" />
        </mxCell>
        <mxCell id="72mwAMU63NSjmhYBSmtf-33" value="new(double,double,double,Stirng,int)" style="text;strokeColor=none;fillColor=none;align=left;verticalAlign=top;spacingLeft=4;spacingRight=4;overflow=hidden;rotatable=0;points=[[0,0.5],[1,0.5]];portConstraint=eastwest;whiteSpace=wrap;html=1;" parent="72mwAMU63NSjmhYBSmtf-30" vertex="1">
          <mxGeometry y="60" width="210" height="26" as="geometry" />
        </mxCell>
        <mxCell id="72mwAMU63NSjmhYBSmtf-34" value="EmpresaTransportista" style="swimlane;fontStyle=1;align=center;verticalAlign=top;childLayout=stackLayout;horizontal=1;startSize=26;horizontalStack=0;resizeParent=1;resizeParentMax=0;resizeLast=0;collapsible=1;marginBottom=0;whiteSpace=wrap;html=1;" parent="1" vertex="1">
          <mxGeometry x="440" y="-550" width="160" height="86" as="geometry" />
        </mxCell>
        <mxCell id="72mwAMU63NSjmhYBSmtf-35" value="+ field: type" style="text;strokeColor=none;fillColor=none;align=left;verticalAlign=top;spacingLeft=4;spacingRight=4;overflow=hidden;rotatable=0;points=[[0,0.5],[1,0.5]];portConstraint=eastwest;whiteSpace=wrap;html=1;" parent="72mwAMU63NSjmhYBSmtf-34" vertex="1">
          <mxGeometry y="26" width="160" height="26" as="geometry" />
        </mxCell>
        <mxCell id="72mwAMU63NSjmhYBSmtf-36" value="" style="line;strokeWidth=1;fillColor=none;align=left;verticalAlign=middle;spacingTop=-1;spacingLeft=3;spacingRight=3;rotatable=0;labelPosition=right;points=[];portConstraint=eastwest;strokeColor=inherit;" parent="72mwAMU63NSjmhYBSmtf-34" vertex="1">
          <mxGeometry y="52" width="160" height="8" as="geometry" />
        </mxCell>
        <mxCell id="72mwAMU63NSjmhYBSmtf-37" value="+ method(type): type" style="text;strokeColor=none;fillColor=none;align=left;verticalAlign=top;spacingLeft=4;spacingRight=4;overflow=hidden;rotatable=0;points=[[0,0.5],[1,0.5]];portConstraint=eastwest;whiteSpace=wrap;html=1;" parent="72mwAMU63NSjmhYBSmtf-34" vertex="1">
          <mxGeometry y="60" width="160" height="26" as="geometry" />
        </mxCell>
        <mxCell id="72mwAMU63NSjmhYBSmtf-38" value="Conductor&lt;br&gt;" style="swimlane;fontStyle=1;align=center;verticalAlign=top;childLayout=stackLayout;horizontal=1;startSize=26;horizontalStack=0;resizeParent=1;resizeParentMax=0;resizeLast=0;collapsible=1;marginBottom=0;whiteSpace=wrap;html=1;" parent="1" vertex="1">
          <mxGeometry x="861" y="-550" width="160" height="86" as="geometry" />
        </mxCell>
        <mxCell id="72mwAMU63NSjmhYBSmtf-39" value="+ field: type" style="text;strokeColor=none;fillColor=none;align=left;verticalAlign=top;spacingLeft=4;spacingRight=4;overflow=hidden;rotatable=0;points=[[0,0.5],[1,0.5]];portConstraint=eastwest;whiteSpace=wrap;html=1;" parent="72mwAMU63NSjmhYBSmtf-38" vertex="1">
          <mxGeometry y="26" width="160" height="26" as="geometry" />
        </mxCell>
        <mxCell id="72mwAMU63NSjmhYBSmtf-40" value="" style="line;strokeWidth=1;fillColor=none;align=left;verticalAlign=middle;spacingTop=-1;spacingLeft=3;spacingRight=3;rotatable=0;labelPosition=right;points=[];portConstraint=eastwest;strokeColor=inherit;" parent="72mwAMU63NSjmhYBSmtf-38" vertex="1">
          <mxGeometry y="52" width="160" height="8" as="geometry" />
        </mxCell>
        <mxCell id="72mwAMU63NSjmhYBSmtf-41" value="+ method(type): type" style="text;strokeColor=none;fillColor=none;align=left;verticalAlign=top;spacingLeft=4;spacingRight=4;overflow=hidden;rotatable=0;points=[[0,0.5],[1,0.5]];portConstraint=eastwest;whiteSpace=wrap;html=1;" parent="72mwAMU63NSjmhYBSmtf-38" vertex="1">
          <mxGeometry y="60" width="160" height="26" as="geometry" />
        </mxCell>
        <mxCell id="72mwAMU63NSjmhYBSmtf-42" value="Camion" style="swimlane;fontStyle=1;align=center;verticalAlign=top;childLayout=stackLayout;horizontal=1;startSize=26;horizontalStack=0;resizeParent=1;resizeParentMax=0;resizeLast=0;collapsible=1;marginBottom=0;whiteSpace=wrap;html=1;" parent="1" vertex="1">
          <mxGeometry x="670" y="-620" width="160" height="86" as="geometry" />
        </mxCell>
        <mxCell id="72mwAMU63NSjmhYBSmtf-43" value="+ field: type" style="text;strokeColor=none;fillColor=none;align=left;verticalAlign=top;spacingLeft=4;spacingRight=4;overflow=hidden;rotatable=0;points=[[0,0.5],[1,0.5]];portConstraint=eastwest;whiteSpace=wrap;html=1;" parent="72mwAMU63NSjmhYBSmtf-42" vertex="1">
          <mxGeometry y="26" width="160" height="26" as="geometry" />
        </mxCell>
        <mxCell id="72mwAMU63NSjmhYBSmtf-44" value="" style="line;strokeWidth=1;fillColor=none;align=left;verticalAlign=middle;spacingTop=-1;spacingLeft=3;spacingRight=3;rotatable=0;labelPosition=right;points=[];portConstraint=eastwest;strokeColor=inherit;" parent="72mwAMU63NSjmhYBSmtf-42" vertex="1">
          <mxGeometry y="52" width="160" height="8" as="geometry" />
        </mxCell>
        <mxCell id="72mwAMU63NSjmhYBSmtf-45" value="+ method(type): type" style="text;strokeColor=none;fillColor=none;align=left;verticalAlign=top;spacingLeft=4;spacingRight=4;overflow=hidden;rotatable=0;points=[[0,0.5],[1,0.5]];portConstraint=eastwest;whiteSpace=wrap;html=1;" parent="72mwAMU63NSjmhYBSmtf-42" vertex="1">
          <mxGeometry y="60" width="160" height="26" as="geometry" />
        </mxCell>
        <mxCell id="72mwAMU63NSjmhYBSmtf-47" value="Circuito" style="swimlane;fontStyle=1;align=center;verticalAlign=top;childLayout=stackLayout;horizontal=1;startSize=26;horizontalStack=0;resizeParent=1;resizeParentMax=0;resizeLast=0;collapsible=1;marginBottom=0;whiteSpace=wrap;html=1;" parent="1" vertex="1">
          <mxGeometry x="-140" y="-160" width="160" height="86" as="geometry" />
        </mxCell>
        <mxCell id="72mwAMU63NSjmhYBSmtf-48" value="+ field: type" style="text;strokeColor=none;fillColor=none;align=left;verticalAlign=top;spacingLeft=4;spacingRight=4;overflow=hidden;rotatable=0;points=[[0,0.5],[1,0.5]];portConstraint=eastwest;whiteSpace=wrap;html=1;" parent="72mwAMU63NSjmhYBSmtf-47" vertex="1">
          <mxGeometry y="26" width="160" height="26" as="geometry" />
        </mxCell>
        <mxCell id="72mwAMU63NSjmhYBSmtf-49" value="" style="line;strokeWidth=1;fillColor=none;align=left;verticalAlign=middle;spacingTop=-1;spacingLeft=3;spacingRight=3;rotatable=0;labelPosition=right;points=[];portConstraint=eastwest;strokeColor=inherit;" parent="72mwAMU63NSjmhYBSmtf-47" vertex="1">
          <mxGeometry y="52" width="160" height="8" as="geometry" />
        </mxCell>
        <mxCell id="72mwAMU63NSjmhYBSmtf-50" value="+ method(type): type" style="text;strokeColor=none;fillColor=none;align=left;verticalAlign=top;spacingLeft=4;spacingRight=4;overflow=hidden;rotatable=0;points=[[0,0.5],[1,0.5]];portConstraint=eastwest;whiteSpace=wrap;html=1;" parent="72mwAMU63NSjmhYBSmtf-47" vertex="1">
          <mxGeometry y="60" width="160" height="26" as="geometry" />
        </mxCell>
        <mxCell id="72mwAMU63NSjmhYBSmtf-54" style="edgeStyle=orthogonalEdgeStyle;rounded=0;orthogonalLoop=1;jettySize=auto;html=1;exitX=0;exitY=0.5;exitDx=0;exitDy=0;entryX=0.5;entryY=0;entryDx=0;entryDy=0;" parent="1" source="72mwAMU63NSjmhYBSmtf-10" target="72mwAMU63NSjmhYBSmtf-13" edge="1">
          <mxGeometry relative="1" as="geometry" />
        </mxCell>
        <mxCell id="72mwAMU63NSjmhYBSmtf-67" style="edgeStyle=orthogonalEdgeStyle;rounded=0;orthogonalLoop=1;jettySize=auto;html=1;exitX=1;exitY=0.5;exitDx=0;exitDy=0;entryX=0;entryY=0.5;entryDx=0;entryDy=0;" parent="1" source="72mwAMU63NSjmhYBSmtf-35" target="72mwAMU63NSjmhYBSmtf-43" edge="1">
          <mxGeometry relative="1" as="geometry" />
        </mxCell>
        <mxCell id="72mwAMU63NSjmhYBSmtf-73" value="Viaje" style="swimlane;fontStyle=1;align=center;verticalAlign=top;childLayout=stackLayout;horizontal=1;startSize=26;horizontalStack=0;resizeParent=1;resizeParentMax=0;resizeLast=0;collapsible=1;marginBottom=0;whiteSpace=wrap;html=1;" parent="1" vertex="1">
          <mxGeometry x="-320" y="-160" width="160" height="86" as="geometry" />
        </mxCell>
        <mxCell id="72mwAMU63NSjmhYBSmtf-74" value="+ field: type" style="text;strokeColor=none;fillColor=none;align=left;verticalAlign=top;spacingLeft=4;spacingRight=4;overflow=hidden;rotatable=0;points=[[0,0.5],[1,0.5]];portConstraint=eastwest;whiteSpace=wrap;html=1;" parent="72mwAMU63NSjmhYBSmtf-73" vertex="1">
          <mxGeometry y="26" width="160" height="26" as="geometry" />
        </mxCell>
        <mxCell id="72mwAMU63NSjmhYBSmtf-75" value="" style="line;strokeWidth=1;fillColor=none;align=left;verticalAlign=middle;spacingTop=-1;spacingLeft=3;spacingRight=3;rotatable=0;labelPosition=right;points=[];portConstraint=eastwest;strokeColor=inherit;" parent="72mwAMU63NSjmhYBSmtf-73" vertex="1">
          <mxGeometry y="52" width="160" height="8" as="geometry" />
        </mxCell>
        <mxCell id="72mwAMU63NSjmhYBSmtf-76" value="+ method(type): type" style="text;strokeColor=none;fillColor=none;align=left;verticalAlign=top;spacingLeft=4;spacingRight=4;overflow=hidden;rotatable=0;points=[[0,0.5],[1,0.5]];portConstraint=eastwest;whiteSpace=wrap;html=1;" parent="72mwAMU63NSjmhYBSmtf-73" vertex="1">
          <mxGeometry y="60" width="160" height="26" as="geometry" />
        </mxCell>
        <mxCell id="72mwAMU63NSjmhYBSmtf-79" style="edgeStyle=orthogonalEdgeStyle;rounded=0;orthogonalLoop=1;jettySize=auto;html=1;exitX=1;exitY=0.5;exitDx=0;exitDy=0;entryX=0;entryY=0.5;entryDx=0;entryDy=0;" parent="1" source="72mwAMU63NSjmhYBSmtf-2" target="72mwAMU63NSjmhYBSmtf-35" edge="1">
          <mxGeometry relative="1" as="geometry" />
        </mxCell>
        <mxCell id="EXzcItGCML2ipMpQHdA3-8" style="edgeStyle=orthogonalEdgeStyle;rounded=0;orthogonalLoop=1;jettySize=auto;html=1;exitX=1;exitY=0.5;exitDx=0;exitDy=0;entryX=0.55;entryY=-0.023;entryDx=0;entryDy=0;entryPerimeter=0;" parent="1" source="72mwAMU63NSjmhYBSmtf-10" target="72mwAMU63NSjmhYBSmtf-47" edge="1">
          <mxGeometry relative="1" as="geometry" />
        </mxCell>
        <mxCell id="EXzcItGCML2ipMpQHdA3-9" value="Tramo" style="swimlane;fontStyle=1;align=center;verticalAlign=top;childLayout=stackLayout;horizontal=1;startSize=26;horizontalStack=0;resizeParent=1;resizeParentMax=0;resizeLast=0;collapsible=1;marginBottom=0;whiteSpace=wrap;html=1;" parent="1" vertex="1">
          <mxGeometry x="-140" y="-40" width="160" height="86" as="geometry" />
        </mxCell>
        <mxCell id="EXzcItGCML2ipMpQHdA3-10" value="+ field: type" style="text;strokeColor=none;fillColor=none;align=left;verticalAlign=top;spacingLeft=4;spacingRight=4;overflow=hidden;rotatable=0;points=[[0,0.5],[1,0.5]];portConstraint=eastwest;whiteSpace=wrap;html=1;" parent="EXzcItGCML2ipMpQHdA3-9" vertex="1">
          <mxGeometry y="26" width="160" height="26" as="geometry" />
        </mxCell>
        <mxCell id="EXzcItGCML2ipMpQHdA3-11" value="" style="line;strokeWidth=1;fillColor=none;align=left;verticalAlign=middle;spacingTop=-1;spacingLeft=3;spacingRight=3;rotatable=0;labelPosition=right;points=[];portConstraint=eastwest;strokeColor=inherit;" parent="EXzcItGCML2ipMpQHdA3-9" vertex="1">
          <mxGeometry y="52" width="160" height="8" as="geometry" />
        </mxCell>
        <mxCell id="EXzcItGCML2ipMpQHdA3-12" value="+ method(type): type" style="text;strokeColor=none;fillColor=none;align=left;verticalAlign=top;spacingLeft=4;spacingRight=4;overflow=hidden;rotatable=0;points=[[0,0.5],[1,0.5]];portConstraint=eastwest;whiteSpace=wrap;html=1;" parent="EXzcItGCML2ipMpQHdA3-9" vertex="1">
          <mxGeometry y="60" width="160" height="26" as="geometry" />
        </mxCell>
        <mxCell id="EXzcItGCML2ipMpQHdA3-13" style="edgeStyle=orthogonalEdgeStyle;rounded=0;orthogonalLoop=1;jettySize=auto;html=1;exitX=1;exitY=0.5;exitDx=0;exitDy=0;entryX=1;entryY=0.5;entryDx=0;entryDy=0;" parent="1" source="72mwAMU63NSjmhYBSmtf-48" target="EXzcItGCML2ipMpQHdA3-10" edge="1">
          <mxGeometry relative="1" as="geometry" />
        </mxCell>
        <mxCell id="k1d55xZPJXgNIXv552Am-1" value="&lt;p style=&quot;margin:0px;margin-top:4px;text-align:center;&quot;&gt;&lt;b&gt;Cliente&lt;/b&gt;&lt;/p&gt;&lt;hr size=&quot;1&quot;&gt;&lt;p style=&quot;margin:0px;margin-left:4px;&quot;&gt;dni: int&lt;/p&gt;&lt;p style=&quot;margin:0px;margin-left:4px;&quot;&gt;nombreCliente: String&lt;/p&gt;&lt;hr size=&quot;1&quot;&gt;&lt;p style=&quot;margin:0px;margin-left:4px;&quot;&gt;+ method(): Type&lt;/p&gt;" style="verticalAlign=top;align=left;overflow=fill;fontSize=12;fontFamily=Helvetica;html=1;whiteSpace=wrap;" parent="1" vertex="1">
          <mxGeometry x="70" y="80" width="160" height="90" as="geometry" />
        </mxCell>
        <mxCell id="k1d55xZPJXgNIXv552Am-5" style="edgeStyle=orthogonalEdgeStyle;rounded=0;orthogonalLoop=1;jettySize=auto;html=1;exitX=1;exitY=0.5;exitDx=0;exitDy=0;entryX=0;entryY=0.5;entryDx=0;entryDy=0;" parent="1" source="72mwAMU63NSjmhYBSmtf-35" target="72mwAMU63NSjmhYBSmtf-39" edge="1">
          <mxGeometry relative="1" as="geometry" />
        </mxCell>
        <mxCell id="k1d55xZPJXgNIXv552Am-6" style="edgeStyle=orthogonalEdgeStyle;rounded=0;orthogonalLoop=1;jettySize=auto;html=1;exitX=1;exitY=0.5;exitDx=0;exitDy=0;entryX=0;entryY=0.5;entryDx=0;entryDy=0;" parent="1" source="72mwAMU63NSjmhYBSmtf-74" target="72mwAMU63NSjmhYBSmtf-48" edge="1">
          <mxGeometry relative="1" as="geometry" />
        </mxCell>
        <mxCell id="k1d55xZPJXgNIXv552Am-7" style="edgeStyle=orthogonalEdgeStyle;rounded=0;orthogonalLoop=1;jettySize=auto;html=1;exitX=0;exitY=0.5;exitDx=0;exitDy=0;entryX=1;entryY=0.5;entryDx=0;entryDy=0;" parent="1" source="72mwAMU63NSjmhYBSmtf-74" target="72mwAMU63NSjmhYBSmtf-14" edge="1">
          <mxGeometry relative="1" as="geometry" />
        </mxCell>
        <mxCell id="k1d55xZPJXgNIXv552Am-8" style="edgeStyle=orthogonalEdgeStyle;rounded=0;orthogonalLoop=1;jettySize=auto;html=1;exitX=0;exitY=0.5;exitDx=0;exitDy=0;entryX=0.25;entryY=0;entryDx=0;entryDy=0;" parent="1" source="72mwAMU63NSjmhYBSmtf-10" target="72mwAMU63NSjmhYBSmtf-73" edge="1">
          <mxGeometry relative="1" as="geometry" />
        </mxCell>
        <mxCell id="k1d55xZPJXgNIXv552Am-9" value="Extends" style="endArrow=block;endSize=16;endFill=0;html=1;rounded=0;entryX=0.5;entryY=0;entryDx=0;entryDy=0;" parent="1" source="mEWVj_JCskxRbqt2M_zb-11" target="72mwAMU63NSjmhYBSmtf-26" edge="1">
          <mxGeometry width="160" relative="1" as="geometry">
            <mxPoint x="923.6686390532545" y="28" as="sourcePoint" />
            <mxPoint x="1030" y="146" as="targetPoint" />
          </mxGeometry>
        </mxCell>
        <mxCell id="k1d55xZPJXgNIXv552Am-10" value="Extends" style="endArrow=block;endSize=16;endFill=0;html=1;rounded=0;" parent="1" source="mEWVj_JCskxRbqt2M_zb-8" target="72mwAMU63NSjmhYBSmtf-30" edge="1">
          <mxGeometry width="160" relative="1" as="geometry">
            <mxPoint x="849.0566037735848" y="28" as="sourcePoint" />
            <mxPoint x="720" y="156" as="targetPoint" />
          </mxGeometry>
        </mxCell>
        <mxCell id="k1d55xZPJXgNIXv552Am-11" value="Extends" style="endArrow=block;endSize=16;endFill=0;html=1;rounded=0;entryX=0.438;entryY=-0.023;entryDx=0;entryDy=0;entryPerimeter=0;" parent="1" source="mEWVj_JCskxRbqt2M_zb-8" target="72mwAMU63NSjmhYBSmtf-21" edge="1">
          <mxGeometry width="160" relative="1" as="geometry">
            <mxPoint x="880.0196381315036" y="28" as="sourcePoint" />
            <mxPoint x="890" y="156" as="targetPoint" />
          </mxGeometry>
        </mxCell>
        <mxCell id="k1d55xZPJXgNIXv552Am-12" value="OrdenImportacion&amp;nbsp;" style="swimlane;fontStyle=1;align=center;verticalAlign=top;childLayout=stackLayout;horizontal=1;startSize=26;horizontalStack=0;resizeParent=1;resizeParentMax=0;resizeLast=0;collapsible=1;marginBottom=0;whiteSpace=wrap;html=1;" parent="1" vertex="1">
          <mxGeometry x="270" y="-60" width="160" height="86" as="geometry" />
        </mxCell>
        <mxCell id="k1d55xZPJXgNIXv552Am-13" value="+ field: type" style="text;strokeColor=none;fillColor=none;align=left;verticalAlign=top;spacingLeft=4;spacingRight=4;overflow=hidden;rotatable=0;points=[[0,0.5],[1,0.5]];portConstraint=eastwest;whiteSpace=wrap;html=1;" parent="k1d55xZPJXgNIXv552Am-12" vertex="1">
          <mxGeometry y="26" width="160" height="26" as="geometry" />
        </mxCell>
        <mxCell id="k1d55xZPJXgNIXv552Am-14" value="" style="line;strokeWidth=1;fillColor=none;align=left;verticalAlign=middle;spacingTop=-1;spacingLeft=3;spacingRight=3;rotatable=0;labelPosition=right;points=[];portConstraint=eastwest;strokeColor=inherit;" parent="k1d55xZPJXgNIXv552Am-12" vertex="1">
          <mxGeometry y="52" width="160" height="8" as="geometry" />
        </mxCell>
        <mxCell id="k1d55xZPJXgNIXv552Am-15" value="+ method(type): type" style="text;strokeColor=none;fillColor=none;align=left;verticalAlign=top;spacingLeft=4;spacingRight=4;overflow=hidden;rotatable=0;points=[[0,0.5],[1,0.5]];portConstraint=eastwest;whiteSpace=wrap;html=1;" parent="k1d55xZPJXgNIXv552Am-12" vertex="1">
          <mxGeometry y="60" width="160" height="26" as="geometry" />
        </mxCell>
        <mxCell id="k1d55xZPJXgNIXv552Am-16" value="OrdenExportacion&amp;nbsp;" style="swimlane;fontStyle=1;align=center;verticalAlign=top;childLayout=stackLayout;horizontal=1;startSize=26;horizontalStack=0;resizeParent=1;resizeParentMax=0;resizeLast=0;collapsible=1;marginBottom=0;whiteSpace=wrap;html=1;" parent="1" vertex="1">
          <mxGeometry x="440" y="-60" width="160" height="86" as="geometry" />
        </mxCell>
        <mxCell id="k1d55xZPJXgNIXv552Am-17" value="+ field: type" style="text;strokeColor=none;fillColor=none;align=left;verticalAlign=top;spacingLeft=4;spacingRight=4;overflow=hidden;rotatable=0;points=[[0,0.5],[1,0.5]];portConstraint=eastwest;whiteSpace=wrap;html=1;" parent="k1d55xZPJXgNIXv552Am-16" vertex="1">
          <mxGeometry y="26" width="160" height="26" as="geometry" />
        </mxCell>
        <mxCell id="k1d55xZPJXgNIXv552Am-18" value="" style="line;strokeWidth=1;fillColor=none;align=left;verticalAlign=middle;spacingTop=-1;spacingLeft=3;spacingRight=3;rotatable=0;labelPosition=right;points=[];portConstraint=eastwest;strokeColor=inherit;" parent="k1d55xZPJXgNIXv552Am-16" vertex="1">
          <mxGeometry y="52" width="160" height="8" as="geometry" />
        </mxCell>
        <mxCell id="k1d55xZPJXgNIXv552Am-19" value="+ method(type): type" style="text;strokeColor=none;fillColor=none;align=left;verticalAlign=top;spacingLeft=4;spacingRight=4;overflow=hidden;rotatable=0;points=[[0,0.5],[1,0.5]];portConstraint=eastwest;whiteSpace=wrap;html=1;" parent="k1d55xZPJXgNIXv552Am-16" vertex="1">
          <mxGeometry y="60" width="160" height="26" as="geometry" />
        </mxCell>
        <mxCell id="k1d55xZPJXgNIXv552Am-20" value="MotorDeBusqueda" style="swimlane;fontStyle=1;align=center;verticalAlign=top;childLayout=stackLayout;horizontal=1;startSize=26;horizontalStack=0;resizeParent=1;resizeParentMax=0;resizeLast=0;collapsible=1;marginBottom=0;whiteSpace=wrap;html=1;" parent="1" vertex="1">
          <mxGeometry x="-240" y="-520" width="160" height="82" as="geometry" />
        </mxCell>
        <mxCell id="k1d55xZPJXgNIXv552Am-21" value="+ field: type" style="text;strokeColor=none;fillColor=none;align=left;verticalAlign=top;spacingLeft=4;spacingRight=4;overflow=hidden;rotatable=0;points=[[0,0.5],[1,0.5]];portConstraint=eastwest;whiteSpace=wrap;html=1;" parent="k1d55xZPJXgNIXv552Am-20" vertex="1">
          <mxGeometry y="26" width="160" height="22" as="geometry" />
        </mxCell>
        <mxCell id="k1d55xZPJXgNIXv552Am-22" value="" style="line;strokeWidth=1;fillColor=none;align=left;verticalAlign=middle;spacingTop=-1;spacingLeft=3;spacingRight=3;rotatable=0;labelPosition=right;points=[];portConstraint=eastwest;strokeColor=inherit;" parent="k1d55xZPJXgNIXv552Am-20" vertex="1">
          <mxGeometry y="48" width="160" height="8" as="geometry" />
        </mxCell>
        <mxCell id="k1d55xZPJXgNIXv552Am-23" value="+ method(type): type" style="text;strokeColor=none;fillColor=none;align=left;verticalAlign=top;spacingLeft=4;spacingRight=4;overflow=hidden;rotatable=0;points=[[0,0.5],[1,0.5]];portConstraint=eastwest;whiteSpace=wrap;html=1;" parent="k1d55xZPJXgNIXv552Am-20" vertex="1">
          <mxGeometry y="56" width="160" height="26" as="geometry" />
        </mxCell>
        <mxCell id="k1d55xZPJXgNIXv552Am-32" value="Electricidad" style="swimlane;fontStyle=1;align=center;verticalAlign=top;childLayout=stackLayout;horizontal=1;startSize=26;horizontalStack=0;resizeParent=1;resizeParentMax=0;resizeLast=0;collapsible=1;marginBottom=0;whiteSpace=wrap;html=1;" parent="1" vertex="1">
          <mxGeometry x="1230" y="-270" width="160" height="70" as="geometry" />
        </mxCell>
        <mxCell id="k1d55xZPJXgNIXv552Am-34" value="" style="line;strokeWidth=1;fillColor=none;align=left;verticalAlign=middle;spacingTop=-1;spacingLeft=3;spacingRight=3;rotatable=0;labelPosition=right;points=[];portConstraint=eastwest;strokeColor=inherit;" parent="k1d55xZPJXgNIXv552Am-32" vertex="1">
          <mxGeometry y="26" width="160" height="8" as="geometry" />
        </mxCell>
        <mxCell id="k1d55xZPJXgNIXv552Am-35" value="&lt;i style=&quot;border-color: var(--border-color);&quot;&gt;new(double):Servicio&lt;br style=&quot;border-color: var(--border-color);&quot;&gt;getPrecio():double&lt;br style=&quot;border-color: var(--border-color);&quot;&gt;&lt;/i&gt;" style="text;strokeColor=none;fillColor=none;align=left;verticalAlign=top;spacingLeft=4;spacingRight=4;overflow=hidden;rotatable=0;points=[[0,0.5],[1,0.5]];portConstraint=eastwest;whiteSpace=wrap;html=1;" parent="k1d55xZPJXgNIXv552Am-32" vertex="1">
          <mxGeometry y="34" width="160" height="36" as="geometry" />
        </mxCell>
        <mxCell id="k1d55xZPJXgNIXv552Am-36" value="Pesado" style="swimlane;fontStyle=1;align=center;verticalAlign=top;childLayout=stackLayout;horizontal=1;startSize=26;horizontalStack=0;resizeParent=1;resizeParentMax=0;resizeLast=0;collapsible=1;marginBottom=0;whiteSpace=wrap;html=1;" parent="1" vertex="1">
          <mxGeometry x="1230" y="-170" width="160" height="70" as="geometry" />
        </mxCell>
        <mxCell id="k1d55xZPJXgNIXv552Am-38" value="" style="line;strokeWidth=1;fillColor=none;align=left;verticalAlign=middle;spacingTop=-1;spacingLeft=3;spacingRight=3;rotatable=0;labelPosition=right;points=[];portConstraint=eastwest;strokeColor=inherit;" parent="k1d55xZPJXgNIXv552Am-36" vertex="1">
          <mxGeometry y="26" width="160" height="8" as="geometry" />
        </mxCell>
        <mxCell id="k1d55xZPJXgNIXv552Am-39" value="&lt;i style=&quot;border-color: var(--border-color);&quot;&gt;new(double):Servicio&lt;br style=&quot;border-color: var(--border-color);&quot;&gt;getPrecio():double&lt;br style=&quot;border-color: var(--border-color);&quot;&gt;&lt;/i&gt;" style="text;strokeColor=none;fillColor=none;align=left;verticalAlign=top;spacingLeft=4;spacingRight=4;overflow=hidden;rotatable=0;points=[[0,0.5],[1,0.5]];portConstraint=eastwest;whiteSpace=wrap;html=1;" parent="k1d55xZPJXgNIXv552Am-36" vertex="1">
          <mxGeometry y="34" width="160" height="36" as="geometry" />
        </mxCell>
        <mxCell id="k1d55xZPJXgNIXv552Am-40" value="Lavado" style="swimlane;fontStyle=1;align=center;verticalAlign=top;childLayout=stackLayout;horizontal=1;startSize=26;horizontalStack=0;resizeParent=1;resizeParentMax=0;resizeLast=0;collapsible=1;marginBottom=0;whiteSpace=wrap;html=1;" parent="1" vertex="1">
          <mxGeometry x="1230" y="-74" width="160" height="70" as="geometry" />
        </mxCell>
        <mxCell id="k1d55xZPJXgNIXv552Am-42" value="" style="line;strokeWidth=1;fillColor=none;align=left;verticalAlign=middle;spacingTop=-1;spacingLeft=3;spacingRight=3;rotatable=0;labelPosition=right;points=[];portConstraint=eastwest;strokeColor=inherit;" parent="k1d55xZPJXgNIXv552Am-40" vertex="1">
          <mxGeometry y="26" width="160" height="8" as="geometry" />
        </mxCell>
        <mxCell id="k1d55xZPJXgNIXv552Am-43" value="&lt;i style=&quot;border-color: var(--border-color);&quot;&gt;new(double):Servicio&lt;br style=&quot;border-color: var(--border-color);&quot;&gt;getPrecio():double&lt;br style=&quot;border-color: var(--border-color);&quot;&gt;&lt;/i&gt;" style="text;strokeColor=none;fillColor=none;align=left;verticalAlign=top;spacingLeft=4;spacingRight=4;overflow=hidden;rotatable=0;points=[[0,0.5],[1,0.5]];portConstraint=eastwest;whiteSpace=wrap;html=1;" parent="k1d55xZPJXgNIXv552Am-40" vertex="1">
          <mxGeometry y="34" width="160" height="36" as="geometry" />
        </mxCell>
        <mxCell id="k1d55xZPJXgNIXv552Am-44" value="Extends" style="endArrow=block;endSize=16;endFill=0;html=1;rounded=0;" parent="1" source="mEWVj_JCskxRbqt2M_zb-12" target="k1d55xZPJXgNIXv552Am-36" edge="1">
          <mxGeometry width="160" relative="1" as="geometry">
            <mxPoint x="864.5535714285716" y="-280" as="sourcePoint" />
            <mxPoint x="980" y="-166" as="targetPoint" />
          </mxGeometry>
        </mxCell>
        <mxCell id="k1d55xZPJXgNIXv552Am-45" value="Extends" style="endArrow=block;endSize=16;endFill=0;html=1;rounded=0;entryX=0;entryY=0.25;entryDx=0;entryDy=0;" parent="1" source="mEWVj_JCskxRbqt2M_zb-12" target="k1d55xZPJXgNIXv552Am-40" edge="1">
          <mxGeometry width="160" relative="1" as="geometry">
            <mxPoint x="795.4464285714284" y="-280" as="sourcePoint" />
            <mxPoint x="860" y="-226" as="targetPoint" />
          </mxGeometry>
        </mxCell>
        <mxCell id="k1d55xZPJXgNIXv552Am-46" value="Extends" style="endArrow=block;endSize=16;endFill=0;html=1;rounded=0;entryX=0;entryY=0.25;entryDx=0;entryDy=0;" parent="1" source="mEWVj_JCskxRbqt2M_zb-12" target="k1d55xZPJXgNIXv552Am-32" edge="1">
          <mxGeometry width="160" relative="1" as="geometry">
            <mxPoint x="910" y="-289.15749000307596" as="sourcePoint" />
            <mxPoint x="1030" y="-226" as="targetPoint" />
          </mxGeometry>
        </mxCell>
        <mxCell id="k1d55xZPJXgNIXv552Am-47" value="AlmacenamientoExcedente" style="swimlane;fontStyle=1;align=center;verticalAlign=top;childLayout=stackLayout;horizontal=1;startSize=26;horizontalStack=0;resizeParent=1;resizeParentMax=0;resizeLast=0;collapsible=1;marginBottom=0;whiteSpace=wrap;html=1;" parent="1" vertex="1">
          <mxGeometry x="1230" y="-373" width="190" height="70" as="geometry" />
        </mxCell>
        <mxCell id="k1d55xZPJXgNIXv552Am-49" value="" style="line;strokeWidth=1;fillColor=none;align=left;verticalAlign=middle;spacingTop=-1;spacingLeft=3;spacingRight=3;rotatable=0;labelPosition=right;points=[];portConstraint=eastwest;strokeColor=inherit;" parent="k1d55xZPJXgNIXv552Am-47" vertex="1">
          <mxGeometry y="26" width="190" height="8" as="geometry" />
        </mxCell>
        <mxCell id="k1d55xZPJXgNIXv552Am-50" value="&lt;i style=&quot;border-color: var(--border-color);&quot;&gt;new(double):Servicio&lt;br style=&quot;border-color: var(--border-color);&quot;&gt;getPrecio():double&lt;br style=&quot;border-color: var(--border-color);&quot;&gt;&lt;/i&gt;" style="text;strokeColor=none;fillColor=none;align=left;verticalAlign=top;spacingLeft=4;spacingRight=4;overflow=hidden;rotatable=0;points=[[0,0.5],[1,0.5]];portConstraint=eastwest;whiteSpace=wrap;html=1;" parent="k1d55xZPJXgNIXv552Am-47" vertex="1">
          <mxGeometry y="34" width="190" height="36" as="geometry" />
        </mxCell>
        <mxCell id="k1d55xZPJXgNIXv552Am-52" value="Extends" style="endArrow=block;endSize=16;endFill=0;html=1;rounded=0;entryX=0;entryY=0.5;entryDx=0;entryDy=0;" parent="1" source="mEWVj_JCskxRbqt2M_zb-12" edge="1">
          <mxGeometry width="160" relative="1" as="geometry">
            <mxPoint x="910" y="-327" as="sourcePoint" />
            <mxPoint x="1230" y="-334" as="targetPoint" />
          </mxGeometry>
        </mxCell>
        <mxCell id="mEWVj_JCskxRbqt2M_zb-29" style="edgeStyle=orthogonalEdgeStyle;rounded=0;orthogonalLoop=1;jettySize=auto;html=1;exitX=1;exitY=0.25;exitDx=0;exitDy=0;entryX=0;entryY=0.25;entryDx=0;entryDy=0;" edge="1" parent="1" source="mEWVj_JCskxRbqt2M_zb-1" target="mEWVj_JCskxRbqt2M_zb-8">
          <mxGeometry relative="1" as="geometry" />
        </mxCell>
        <mxCell id="mEWVj_JCskxRbqt2M_zb-32" style="edgeStyle=orthogonalEdgeStyle;rounded=0;orthogonalLoop=1;jettySize=auto;html=1;exitX=1;exitY=0;exitDx=0;exitDy=0;entryX=0;entryY=0.25;entryDx=0;entryDy=0;" edge="1" parent="1" source="mEWVj_JCskxRbqt2M_zb-1" target="mEWVj_JCskxRbqt2M_zb-12">
          <mxGeometry relative="1" as="geometry">
            <Array as="points">
              <mxPoint x="490" y="-200" />
              <mxPoint x="490" y="-250" />
              <mxPoint x="770" y="-250" />
              <mxPoint x="770" y="-259" />
            </Array>
          </mxGeometry>
        </mxCell>
        <mxCell id="mEWVj_JCskxRbqt2M_zb-1" value="&lt;i style=&quot;border-color: var(--border-color); font-weight: 400;&quot;&gt;&amp;lt;&amp;lt;Abstract&amp;gt;&amp;gt;&lt;/i&gt;&lt;br&gt;Orden" style="swimlane;fontStyle=1;align=center;verticalAlign=top;childLayout=stackLayout;horizontal=1;startSize=40;horizontalStack=0;resizeParent=1;resizeParentMax=0;resizeLast=0;collapsible=1;marginBottom=0;whiteSpace=wrap;html=1;" vertex="1" parent="1">
          <mxGeometry x="275" y="-200" width="160" height="100" as="geometry" />
        </mxCell>
        <mxCell id="mEWVj_JCskxRbqt2M_zb-2" value="+ field: type" style="text;strokeColor=none;fillColor=none;align=left;verticalAlign=top;spacingLeft=4;spacingRight=4;overflow=hidden;rotatable=0;points=[[0,0.5],[1,0.5]];portConstraint=eastwest;whiteSpace=wrap;html=1;" vertex="1" parent="mEWVj_JCskxRbqt2M_zb-1">
          <mxGeometry y="40" width="160" height="26" as="geometry" />
        </mxCell>
        <mxCell id="mEWVj_JCskxRbqt2M_zb-3" value="" style="line;strokeWidth=1;fillColor=none;align=left;verticalAlign=middle;spacingTop=-1;spacingLeft=3;spacingRight=3;rotatable=0;labelPosition=right;points=[];portConstraint=eastwest;strokeColor=inherit;" vertex="1" parent="mEWVj_JCskxRbqt2M_zb-1">
          <mxGeometry y="66" width="160" height="8" as="geometry" />
        </mxCell>
        <mxCell id="mEWVj_JCskxRbqt2M_zb-4" value="+ method(type): type" style="text;strokeColor=none;fillColor=none;align=left;verticalAlign=top;spacingLeft=4;spacingRight=4;overflow=hidden;rotatable=0;points=[[0,0.5],[1,0.5]];portConstraint=eastwest;whiteSpace=wrap;html=1;" vertex="1" parent="mEWVj_JCskxRbqt2M_zb-1">
          <mxGeometry y="74" width="160" height="26" as="geometry" />
        </mxCell>
        <mxCell id="mEWVj_JCskxRbqt2M_zb-5" value="Extends" style="endArrow=block;endSize=16;endFill=0;html=1;rounded=0;exitX=0.65;exitY=1.077;exitDx=0;exitDy=0;exitPerimeter=0;entryX=0.5;entryY=0;entryDx=0;entryDy=0;" edge="1" parent="1" source="mEWVj_JCskxRbqt2M_zb-4" target="k1d55xZPJXgNIXv552Am-16">
          <mxGeometry width="160" relative="1" as="geometry">
            <mxPoint x="375" y="50" as="sourcePoint" />
            <mxPoint x="445" y="110" as="targetPoint" />
          </mxGeometry>
        </mxCell>
        <mxCell id="mEWVj_JCskxRbqt2M_zb-6" value="Extends" style="endArrow=block;endSize=16;endFill=0;html=1;rounded=0;exitX=0.25;exitY=1.038;exitDx=0;exitDy=0;exitPerimeter=0;entryX=0.5;entryY=0;entryDx=0;entryDy=0;" edge="1" parent="1" source="mEWVj_JCskxRbqt2M_zb-4" target="k1d55xZPJXgNIXv552Am-12">
          <mxGeometry width="160" relative="1" as="geometry">
            <mxPoint x="265" y="-92" as="sourcePoint" />
            <mxPoint x="326" y="-50" as="targetPoint" />
          </mxGeometry>
        </mxCell>
        <mxCell id="mEWVj_JCskxRbqt2M_zb-8" value="&lt;i style=&quot;border-color: var(--border-color); font-weight: 400;&quot;&gt;&amp;lt;&amp;lt;Abstract&amp;gt;&amp;gt;&lt;/i&gt;&lt;br&gt;Container" style="swimlane;fontStyle=1;align=center;verticalAlign=top;childLayout=stackLayout;horizontal=1;startSize=40;horizontalStack=0;resizeParent=1;resizeParentMax=0;resizeLast=0;collapsible=1;marginBottom=0;whiteSpace=wrap;html=1;" vertex="1" parent="1">
          <mxGeometry x="804" y="-74" width="220" height="180" as="geometry" />
        </mxCell>
        <mxCell id="mEWVj_JCskxRbqt2M_zb-9" value="ancho:double&lt;br&gt;largo:double&lt;br&gt;altura:double&lt;br&gt;tipoContainer:String&lt;br&gt;idContainer:int" style="text;strokeColor=none;fillColor=none;align=left;verticalAlign=top;spacingLeft=4;spacingRight=4;overflow=hidden;rotatable=0;points=[[0,0.5],[1,0.5]];portConstraint=eastwest;whiteSpace=wrap;html=1;" vertex="1" parent="mEWVj_JCskxRbqt2M_zb-8">
          <mxGeometry y="40" width="220" height="80" as="geometry" />
        </mxCell>
        <mxCell id="mEWVj_JCskxRbqt2M_zb-10" value="" style="line;strokeWidth=1;fillColor=none;align=left;verticalAlign=middle;spacingTop=-1;spacingLeft=3;spacingRight=3;rotatable=0;labelPosition=right;points=[];portConstraint=eastwest;strokeColor=inherit;" vertex="1" parent="mEWVj_JCskxRbqt2M_zb-8">
          <mxGeometry y="120" width="220" height="8" as="geometry" />
        </mxCell>
        <mxCell id="mEWVj_JCskxRbqt2M_zb-11" value="&lt;i&gt;new(double,double,double,Stirng,int)&lt;/i&gt;" style="text;strokeColor=none;fillColor=none;align=left;verticalAlign=top;spacingLeft=4;spacingRight=4;overflow=hidden;rotatable=0;points=[[0,0.5],[1,0.5]];portConstraint=eastwest;whiteSpace=wrap;html=1;" vertex="1" parent="mEWVj_JCskxRbqt2M_zb-8">
          <mxGeometry y="128" width="220" height="52" as="geometry" />
        </mxCell>
        <mxCell id="mEWVj_JCskxRbqt2M_zb-31" style="edgeStyle=orthogonalEdgeStyle;rounded=0;orthogonalLoop=1;jettySize=auto;html=1;entryX=0.5;entryY=0;entryDx=0;entryDy=0;" edge="1" parent="1" source="mEWVj_JCskxRbqt2M_zb-12" target="mEWVj_JCskxRbqt2M_zb-8">
          <mxGeometry relative="1" as="geometry" />
        </mxCell>
        <mxCell id="mEWVj_JCskxRbqt2M_zb-12" value="&lt;i style=&quot;border-color: var(--border-color); font-weight: 400;&quot;&gt;&amp;lt;&amp;lt;Abstract&amp;gt;&amp;gt;&lt;/i&gt;&lt;br&gt;Servicio" style="swimlane;fontStyle=1;align=center;verticalAlign=top;childLayout=stackLayout;horizontal=1;startSize=40;horizontalStack=0;resizeParent=1;resizeParentMax=0;resizeLast=0;collapsible=1;marginBottom=0;whiteSpace=wrap;html=1;" vertex="1" parent="1">
          <mxGeometry x="820" y="-284" width="160" height="120" as="geometry" />
        </mxCell>
        <mxCell id="mEWVj_JCskxRbqt2M_zb-13" value="precioDeServicio():double" style="text;strokeColor=none;fillColor=none;align=left;verticalAlign=top;spacingLeft=4;spacingRight=4;overflow=hidden;rotatable=0;points=[[0,0.5],[1,0.5]];portConstraint=eastwest;whiteSpace=wrap;html=1;" vertex="1" parent="mEWVj_JCskxRbqt2M_zb-12">
          <mxGeometry y="40" width="160" height="26" as="geometry" />
        </mxCell>
        <mxCell id="mEWVj_JCskxRbqt2M_zb-14" value="" style="line;strokeWidth=1;fillColor=none;align=left;verticalAlign=middle;spacingTop=-1;spacingLeft=3;spacingRight=3;rotatable=0;labelPosition=right;points=[];portConstraint=eastwest;strokeColor=inherit;" vertex="1" parent="mEWVj_JCskxRbqt2M_zb-12">
          <mxGeometry y="66" width="160" height="8" as="geometry" />
        </mxCell>
        <mxCell id="mEWVj_JCskxRbqt2M_zb-15" value="&lt;i&gt;new(double):Servicio&lt;br&gt;getPrecio():double&lt;br&gt;&lt;br&gt;&lt;/i&gt;" style="text;strokeColor=none;fillColor=none;align=left;verticalAlign=top;spacingLeft=4;spacingRight=4;overflow=hidden;rotatable=0;points=[[0,0.5],[1,0.5]];portConstraint=eastwest;whiteSpace=wrap;html=1;" vertex="1" parent="mEWVj_JCskxRbqt2M_zb-12">
          <mxGeometry y="74" width="160" height="46" as="geometry" />
        </mxCell>
        <mxCell id="mEWVj_JCskxRbqt2M_zb-20" value="&lt;i style=&quot;border-color: var(--border-color); font-weight: 400;&quot;&gt;&amp;lt;&amp;lt;Abstract&amp;gt;&amp;gt;&lt;/i&gt;&lt;br&gt;Terminal" style="swimlane;fontStyle=1;align=center;verticalAlign=top;childLayout=stackLayout;horizontal=1;startSize=40;horizontalStack=0;resizeParent=1;resizeParentMax=0;resizeLast=0;collapsible=1;marginBottom=0;whiteSpace=wrap;html=1;" vertex="1" parent="1">
          <mxGeometry x="230" y="-750" width="160" height="100" as="geometry" />
        </mxCell>
        <mxCell id="mEWVj_JCskxRbqt2M_zb-21" value="+ field: type" style="text;strokeColor=none;fillColor=none;align=left;verticalAlign=top;spacingLeft=4;spacingRight=4;overflow=hidden;rotatable=0;points=[[0,0.5],[1,0.5]];portConstraint=eastwest;whiteSpace=wrap;html=1;" vertex="1" parent="mEWVj_JCskxRbqt2M_zb-20">
          <mxGeometry y="40" width="160" height="26" as="geometry" />
        </mxCell>
        <mxCell id="mEWVj_JCskxRbqt2M_zb-22" value="" style="line;strokeWidth=1;fillColor=none;align=left;verticalAlign=middle;spacingTop=-1;spacingLeft=3;spacingRight=3;rotatable=0;labelPosition=right;points=[];portConstraint=eastwest;strokeColor=inherit;" vertex="1" parent="mEWVj_JCskxRbqt2M_zb-20">
          <mxGeometry y="66" width="160" height="8" as="geometry" />
        </mxCell>
        <mxCell id="mEWVj_JCskxRbqt2M_zb-23" value="+ method(type): type" style="text;strokeColor=none;fillColor=none;align=left;verticalAlign=top;spacingLeft=4;spacingRight=4;overflow=hidden;rotatable=0;points=[[0,0.5],[1,0.5]];portConstraint=eastwest;whiteSpace=wrap;html=1;" vertex="1" parent="mEWVj_JCskxRbqt2M_zb-20">
          <mxGeometry y="74" width="160" height="26" as="geometry" />
        </mxCell>
        <mxCell id="mEWVj_JCskxRbqt2M_zb-24" value="Extends" style="endArrow=block;endSize=16;endFill=0;html=1;rounded=0;entryX=0.5;entryY=0;entryDx=0;entryDy=0;" edge="1" parent="1" source="mEWVj_JCskxRbqt2M_zb-20" target="72mwAMU63NSjmhYBSmtf-1">
          <mxGeometry width="160" relative="1" as="geometry">
            <mxPoint x="269.5" y="-230" as="sourcePoint" />
            <mxPoint x="330.5" y="-182" as="targetPoint" />
          </mxGeometry>
        </mxCell>
        <mxCell id="mEWVj_JCskxRbqt2M_zb-25" style="edgeStyle=orthogonalEdgeStyle;rounded=0;orthogonalLoop=1;jettySize=auto;html=1;exitX=0;exitY=0.5;exitDx=0;exitDy=0;entryX=1;entryY=0.25;entryDx=0;entryDy=0;" edge="1" parent="1" source="72mwAMU63NSjmhYBSmtf-2" target="72mwAMU63NSjmhYBSmtf-9">
          <mxGeometry relative="1" as="geometry" />
        </mxCell>
        <mxCell id="mEWVj_JCskxRbqt2M_zb-28" style="edgeStyle=orthogonalEdgeStyle;rounded=0;orthogonalLoop=1;jettySize=auto;html=1;exitX=0;exitY=0.5;exitDx=0;exitDy=0;entryX=0.5;entryY=0;entryDx=0;entryDy=0;" edge="1" parent="1" source="k1d55xZPJXgNIXv552Am-21" target="72mwAMU63NSjmhYBSmtf-9">
          <mxGeometry relative="1" as="geometry" />
        </mxCell>
        <mxCell id="mEWVj_JCskxRbqt2M_zb-36" style="edgeStyle=orthogonalEdgeStyle;rounded=0;orthogonalLoop=1;jettySize=auto;html=1;exitX=1;exitY=0.5;exitDx=0;exitDy=0;entryX=0.75;entryY=0;entryDx=0;entryDy=0;" edge="1" parent="1" source="72mwAMU63NSjmhYBSmtf-4" target="mEWVj_JCskxRbqt2M_zb-1">
          <mxGeometry relative="1" as="geometry" />
        </mxCell>
        <mxCell id="mEWVj_JCskxRbqt2M_zb-37" style="edgeStyle=orthogonalEdgeStyle;rounded=0;orthogonalLoop=1;jettySize=auto;html=1;exitX=0;exitY=0.5;exitDx=0;exitDy=0;" edge="1" parent="1" source="72mwAMU63NSjmhYBSmtf-4" target="k1d55xZPJXgNIXv552Am-1">
          <mxGeometry relative="1" as="geometry" />
        </mxCell>
        <mxCell id="mEWVj_JCskxRbqt2M_zb-38" value="containerQueUsaElServicio" style="text;html=1;align=center;verticalAlign=middle;resizable=0;points=[];autosize=1;strokeColor=none;fillColor=none;" vertex="1" parent="1">
          <mxGeometry x="740" y="-150" width="170" height="30" as="geometry" />
        </mxCell>
        <mxCell id="mEWVj_JCskxRbqt2M_zb-40" value="serviciosContratados" style="text;html=1;align=center;verticalAlign=middle;resizable=0;points=[];autosize=1;strokeColor=none;fillColor=none;" vertex="1" parent="1">
          <mxGeometry x="510" y="-270" width="140" height="30" as="geometry" />
        </mxCell>
        <mxCell id="mEWVj_JCskxRbqt2M_zb-41" value="*" style="text;html=1;align=center;verticalAlign=middle;resizable=0;points=[];autosize=1;strokeColor=none;fillColor=none;" vertex="1" parent="1">
          <mxGeometry x="785" y="-282" width="30" height="30" as="geometry" />
        </mxCell>
        <mxCell id="mEWVj_JCskxRbqt2M_zb-42" value="datosDeLaCarga" style="text;html=1;align=center;verticalAlign=middle;resizable=0;points=[];autosize=1;strokeColor=none;fillColor=none;" vertex="1" parent="1">
          <mxGeometry x="510" y="-200" width="110" height="30" as="geometry" />
        </mxCell>
      </root>
    </mxGraphModel>
  </diagram>
</mxfile>
